<?xml version="1.0" encoding="UTF-8"?>
<svg width="31px" height="31px" viewBox="0 0 31 31" version="1.1" xmlns="http://www.w3.org/2000/svg" xmlns:xlink="http://www.w3.org/1999/xlink">
    <title>Settings Icon</title>
    <g id="Scratch" stroke="none" stroke-width="1" fill="none" fill-rule="evenodd">
        <g id="IPhone-5.5&quot;" transform="translate(-667.000000, -93.000000)" fill="#FFFFFF">
            <path d="M685.921071,93 L686.302643,97.2656996 C687.917909,97.782971 689.383305,98.6216285 690.618989,99.7039509 L694.604081,97.9083255 L698,103.634082 L694.389207,106.093092 C694.552226,106.864955 694.637856,107.66431 694.637856,108.483134 C694.637856,109.325891 694.547147,110.148024 694.374714,110.940786 L697.974848,113.408325 L694.578929,119.134082 L690.564441,117.309808 C689.341061,118.368494 687.896091,119.189816 686.305756,119.699571 L685.921071,124 L679.129233,124 L678.731545,119.705374 C677.131199,119.195151 675.677555,118.369578 674.448128,117.304111 L670.421071,119.134082 L667.025152,113.408325 L670.64195,110.929342 C670.47113,110.140113 670.381291,109.321836 670.381291,108.483134 C670.381291,107.66834 670.46608,106.872825 670.627539,106.104492 L667,103.634082 L670.395919,97.9083255 L674.393684,99.7096249 C675.635155,98.6206726 677.108934,97.7778549 678.733898,97.2601436 L679.129233,93 L685.921071,93 Z M682.5,102 C678.357864,102 675,105.134007 675,109 C675,112.865993 678.357864,116 682.5,116 C686.642136,116 690,112.865993 690,109 C690,105.134007 686.642136,102 682.5,102 Z" id="Settings-Icon"></path>
        </g>
    </g>
</svg>