<?xml version="1.0" encoding="UTF-8"?>
<svg width="31px" height="31px" viewBox="0 0 31 31" version="1.1" xmlns="http://www.w3.org/2000/svg" xmlns:xlink="http://www.w3.org/1999/xlink">
    <title>Settings Icon Copy</title>
    <g id="Scratch" stroke="none" stroke-width="1" fill="none" fill-rule="evenodd">
        <g id="IPhone-5.5&quot;" transform="translate(-667.000000, -171.000000)" fill="#636363">
            <path d="M685.921071,171 L686.302643,175.2657 C687.917909,175.782971 689.383305,176.621629 690.618989,177.703951 L694.604081,175.908325 L698,181.634082 L694.389207,184.093092 C694.552226,184.864955 694.637856,185.66431 694.637856,186.483134 C694.637856,187.325891 694.547147,188.148024 694.374714,188.940786 L697.974848,191.408325 L694.578929,197.134082 L690.564441,195.309808 C689.341061,196.368494 687.896091,197.189816 686.305756,197.699571 L685.921071,202 L679.129233,202 L678.731545,197.705374 C677.131199,197.195151 675.677555,196.369578 674.448128,195.304111 L670.421071,197.134082 L667.025152,191.408325 L670.64195,188.929342 C670.47113,188.140113 670.381291,187.321836 670.381291,186.483134 C670.381291,185.66834 670.46608,184.872825 670.627539,184.104492 L667,181.634082 L670.395919,175.908325 L674.393684,177.709625 C675.635155,176.620673 677.108934,175.777855 678.733898,175.260144 L679.129233,171 L685.921071,171 Z M682.5,180 C678.357864,180 675,183.134007 675,187 C675,190.865993 678.357864,194 682.5,194 C686.642136,194 690,190.865993 690,187 C690,183.134007 686.642136,180 682.5,180 Z" id="Settings-Icon-Copy"></path>
        </g>
    </g>
</svg>