<?xml version="1.0" encoding="UTF-8"?>
<svg width="42px" height="30px" viewBox="0 0 42 30" version="1.1" xmlns="http://www.w3.org/2000/svg" xmlns:xlink="http://www.w3.org/1999/xlink">
    <title>v-card copy</title>
    <g id="Scratch" stroke="none" stroke-width="1" fill="none" fill-rule="evenodd">
        <g id="IPhone-5.5&quot;" transform="translate(-427.000000, -169.000000)" fill="#636363" fill-rule="nonzero">
            <g id="v-card-copy" transform="translate(427.725439, 169.750091)">
                <path d="M38.95,0 L2.05,0 C0.917816263,0 0,0.927410161 0,2.07142857 L0,26.9285714 C0,28.0725898 0.917816263,29 2.05,29 L38.95,29 C40.0821837,29 41,28.0725898 41,26.9285714 L41,2.07142857 C41,0.927410161 40.0821837,0 38.95,0 Z M26.65,8.28571429 L34.85,8.28571429 L34.85,10.3571429 L26.65,10.3571429 L26.65,8.28571429 Z M22.55,24.4490714 C22.2175453,24.1923662 21.8528872,23.9813144 21.46555,23.8214286 C19.04655,22.7691429 15.3955,21.2114286 15.3955,19.314 C15.3955,18.1726429 16.13145,18.5455 16.4574,16.4575 C16.5927,15.5916429 17.24665,16.443 17.36965,14.4668571 C17.36965,13.6797143 17.01295,13.4829286 17.01295,13.4829286 C17.01295,13.4829286 17.19335,12.3187857 17.2651,11.4197857 C17.3389,10.4814286 16.81205,7.69121429 14.64725,7.076 C14.26595,6.68657143 14.0097,6.84607143 15.17615,6.22257143 C12.62595,6.10035714 12.03145,7.44885714 10.67435,8.44107143 C9.51815,9.31107143 9.2045,10.6885714 9.2619,11.4218571 C9.33775,12.3187857 9.51815,13.485 9.51815,13.485 C9.51815,13.485 9.1594,13.6797143 9.1594,14.4668571 C9.28445,16.443 9.9384,15.5916429 10.07165,16.4575 C10.39555,18.5455 11.1356,18.1726429 11.1356,19.314 C11.1356,21.2114286 7.48455,22.7691429 5.06555,23.8214286 C4.72548536,23.9653786 4.40176588,24.1459451 4.1,24.36 L4.1,4.14285714 L22.55,4.14285714 L22.55,24.4490714 L22.55,24.4490714 Z M36.9,16.5714286 L26.65,16.5714286 L26.65,14.5 L36.9,14.5 L36.9,16.5714286 Z" id="Shape"></path>
            </g>
        </g>
    </g>
</svg>