<?xml version="1.0" encoding="UTF-8"?>
<svg width="34px" height="34px" viewBox="0 0 34 34" version="1.1" xmlns="http://www.w3.org/2000/svg" xmlns:xlink="http://www.w3.org/1999/xlink">
    <title>Information Icon Copy</title>
    <g id="Scratch" stroke="none" stroke-width="1" fill="none" fill-rule="evenodd">
        <g id="IPhone-5.5&quot;" transform="translate(-782.000000, -167.000000)">
            <g id="Information-Icon-Copy" transform="translate(782.000000, 168.000000)">
                <path d="M17.7388612,19.6162484 C17.7467508,19.0073386 17.7980328,18.5582677 17.8927074,18.2690355 C18.0426087,17.8123532 18.3463563,17.4127561 18.80395,17.0702444 L18.80395,17.0702444 L19.6441867,16.4423062 C20.4962577,15.8029509 21.0721945,15.2777662 21.3719973,14.8667521 C21.8848178,14.18934 22.1412281,13.3558947 22.1412281,12.3664163 C22.1412281,10.7528054 21.5514845,9.53498582 20.3719973,8.71295762 C19.1925101,7.89092941 17.7112478,7.47991531 15.9282103,7.47991531 C14.5712083,7.47991531 13.4272241,7.76914745 12.4962577,8.34761175 C11.0209125,9.25336505 10.2359026,10.7908622 10.1412281,12.9601034 L10.1412281,12.9601034 L13.5613464,12.9601034 C13.5613464,12.3283595 13.7526679,11.7194497 14.1353109,11.133374 C14.5179539,10.5472983 15.1668691,10.2542605 16.0820565,10.2542605 C17.0130229,10.2542605 17.6540486,10.4921159 18.0051334,10.9678267 C18.3562182,11.4435374 18.5317606,11.970625 18.5317606,12.5490892 C18.5317606,13.0514398 18.3739697,13.5119278 18.0583878,13.9305533 C17.8848178,14.1741172 17.656021,14.3986527 17.3719973,14.6041598 L17.3719973,14.6041598 L16.508092,15.2549321 C15.656021,15.8942874 15.1274214,16.4594318 14.9222932,16.9503653 C14.717165,17.4412988 14.5909322,18.3299265 14.5435949,19.6162484 L14.5435949,19.6162484 L17.7388612,19.6162484 Z M17.9873819,24.4799153 L17.9873819,21.1803854 L14.4607547,21.1803854 L14.4607547,24.4799153 L17.9873819,24.4799153 Z" id="?" fill="#636363" fill-rule="nonzero"></path>
                <circle id="Oval" stroke="#636363" stroke-width="4" cx="16.6412281" cy="15.9799153" r="14.5"></circle>
            </g>
        </g>
    </g>
</svg>