<?xml version="1.0" encoding="UTF-8"?>
<svg width="42px" height="30px" viewBox="0 0 42 30" version="1.1" xmlns="http://www.w3.org/2000/svg" xmlns:xlink="http://www.w3.org/1999/xlink">
    <title>v-card</title>
    <g id="Scratch" stroke="none" stroke-width="1" fill="none" fill-rule="evenodd">
        <g id="IPhone-5.5&quot;" transform="translate(-427.000000, -91.000000)" fill="#FFFFFF" fill-rule="nonzero">
            <g id="v-card" transform="translate(428.000000, 92.000000)">
                <path d="M38.6754386,-0.249909256 L1.7754386,-0.249909256 C0.643254859,-0.249909256 -0.274561404,0.677500905 -0.274561404,1.82151932 L-0.274561404,26.6786622 C-0.274561404,27.8226806 0.643254859,28.7500907 1.7754386,28.7500907 L38.6754386,28.7500907 C39.8076223,28.7500907 40.7254386,27.8226806 40.7254386,26.6786622 L40.7254386,1.82151932 C40.7254386,0.677500905 39.8076223,-0.249909256 38.6754386,-0.249909256 Z M26.3754386,8.03580503 L34.5754386,8.03580503 L34.5754386,10.1072336 L26.3754386,10.1072336 L26.3754386,8.03580503 Z M22.2754386,24.1991622 C21.9429839,23.9424569 21.5783257,23.7314052 21.1909886,23.5715193 C18.7719886,22.5192336 15.1209386,20.9615193 15.1209386,19.0640907 C15.1209386,17.9227336 15.8568886,18.2955907 16.1828386,16.2075907 C16.3181386,15.3417336 16.9720886,16.1930907 17.0950886,14.2169479 C17.0950886,13.429805 16.7383886,13.2330193 16.7383886,13.2330193 C16.7383886,13.2330193 16.9187886,12.0688765 16.9905386,11.1698765 C17.0643386,10.2315193 16.5374886,7.44130503 14.3726886,6.82609074 C13.9913886,6.43666217 13.7351386,6.59616217 14.9015886,5.97266217 C12.3513886,5.85044789 11.7568886,7.19894789 10.3997886,8.19116217 C9.2435886,9.06116217 8.9299386,10.4386622 8.9873386,11.1719479 C9.0631886,12.0688765 9.2435886,13.2350907 9.2435886,13.2350907 C9.2435886,13.2350907 8.8848386,13.429805 8.8848386,14.2169479 C9.0098886,16.1930907 9.6638386,15.3417336 9.7970886,16.2075907 C10.1209886,18.2955907 10.8610386,17.9227336 10.8610386,19.0640907 C10.8610386,20.9615193 7.2099886,22.5192336 4.7909886,23.5715193 C4.45092396,23.7154693 4.12720448,23.8960359 3.8254386,24.1100907 L3.8254386,3.89294789 L22.2754386,3.89294789 L22.2754386,24.1991622 L22.2754386,24.1991622 Z M36.6254386,16.3215193 L26.3754386,16.3215193 L26.3754386,14.2500907 L36.6254386,14.2500907 L36.6254386,16.3215193 Z" id="Shape"></path>
            </g>
        </g>
    </g>
</svg>