<?xml version="1.0" encoding="UTF-8"?>
<svg width="860px" height="860px" viewBox="0 0 860 860" version="1.1" xmlns="http://www.w3.org/2000/svg" xmlns:xlink="http://www.w3.org/1999/xlink">
    <title>Artboard</title>
    <g id="Artboard" stroke="none" stroke-width="1" fill="none" fill-rule="evenodd">
        <path d="M430,0 C667.482442,0 860,192.517558 860,430 C860,667.482442 667.482442,860 430,860 C192.517558,860 0,667.482442 0,430 C0,192.517558 192.517558,0 430,0 Z M425.948326,243.820444 C384.6931,220.002018 333.866273,220.002141 292.61272,243.819789 C291.946363,244.204497 291.282481,244.598237 290.620779,245.001119 L290.620779,245.001119 L289.489162,245.696378 L288.382259,246.389827 L287.295818,247.08511 L286.22559,247.785873 L285.519011,248.257893 L284.816489,248.735048 L284.116763,249.218418 L283.418574,249.709084 L282.371416,250.461125 L281.671559,250.974756 L280.968829,251.499462 L280.261968,252.036324 L279.549715,252.586422 L278.830812,253.150836 L278.103999,253.730645 L277.368015,254.326931 L276.244091,255.254615 L275.092449,256.225445 L273.908837,257.243066 L273.099902,257.949276 L272.27361,258.678982 L270.998871,259.819959 L269.677991,261.019879 L268.306721,262.282385 L266.880807,263.611124 L265.396,265.00974 L263.848047,266.481879 L262.778899,267.505951 L261.116257,269.108728 L258.782806,271.375884 L255.664436,274.431099 L251.600795,278.444164 L246.373483,283.641103 L145.444853,384.563115 L138.438159,391.595081 L135.630102,394.428784 L133.640088,396.445111 L131.745476,398.372777 L128.789895,401.400075 L127.131868,403.112095 L125.048148,405.281856 L123.575869,406.829987 L122.17712,408.314966 L121.283672,409.271967 L119.999373,410.661141 L118.778885,411.998499 L117.998876,412.863386 L116.514756,414.534779 L115.808486,415.343806 L115.124634,416.136733 L114.462122,416.914819 L113.81987,417.679324 L113.196796,418.431508 L112.591821,419.172631 L112.003866,419.903952 L111.431849,420.626731 L110.87469,421.342228 L110.331311,422.051703 L109.80063,422.756415 L109.281567,423.457623 L108.773043,424.156588 L108.273977,424.85457 L107.783289,425.552828 L107.299899,426.252622 L106.822727,426.955211 L106.350693,427.661855 L105.649913,428.732181 L104.954618,429.818718 L104.261162,430.925716 L103.5659,432.057428 C103.164551,432.716666 102.772275,433.37807 102.388746,434.042307 C78.5703778,475.296663 78.5703778,526.123337 102.3882,567.376748 C102.772954,568.043302 103.168149,568.709685 103.572553,569.373872 L103.572553,569.373872 L104.036447,570.131232 L104.730107,571.245894 L105.192668,571.976588 L105.656587,572.69882 L106.122941,573.41385 L106.592813,574.122935 L107.306574,575.178174 L107.78996,575.877909 L108.529055,576.925026 L109.032703,577.623283 L109.546346,578.323152 L110.071064,579.025893 L110.607935,579.732764 L111.438394,580.803571 L112.010375,581.526279 L112.598289,582.257525 L113.203215,582.998568 L114.144867,584.131259 L114.79705,584.902306 L115.470025,585.687559 L116.164872,586.488276 L116.88267,587.305716 L118.004763,588.565989 L118.784663,589.430749 L120.004971,590.767903 L121.289067,592.156853 L122.182368,593.113693 L123.580874,594.598414 L125.052886,596.146264 L126.602048,597.761494 L128.793904,600.027292 L131.138032,602.430506 L133.643068,604.981211 L134.958626,606.31502 L138.440049,609.830145 L143.000107,614.411365 L148.009757,619.425579 L153.644162,625.046439 L158.025637,629.396236 L160.734731,632.071376 L163.286082,634.576825 L166.268811,637.483186 L168.502119,639.638456 L170.094543,641.161523 L171.620931,642.6086 L172.603939,643.532903 L174.029724,644.861438 L175.400823,646.123713 L176.286607,646.930221 L177.576016,648.090171 L178.822084,649.193592 L179.63082,649.899602 L180.423445,650.583191 L181.201222,651.24544 L181.96541,651.88743 L182.71727,652.510241 L183.458064,653.114956 L184.189051,653.702655 L184.911494,654.274419 L185.626653,654.83133 L186.335788,655.374468 L187.04016,655.904915 L187.741031,656.423752 L188.788531,657.182604 L189.835243,657.921415 L190.534716,658.404623 L191.236992,658.881627 L191.943331,659.353508 L192.654994,659.821347 L193.373243,660.286225 L194.465721,660.980355 L195.205948,661.44256 L196.337305,662.137749 C196.99943,662.540946 197.663736,662.934991 198.330902,663.320213 C239.585307,687.138609 290.411582,687.138609 331.66528,663.320878 C337.166377,660.144155 342.362107,656.462562 348.001075,651.78958 L348.001075,651.78958 L349.216482,650.772875 C349.420272,650.600836 349.624695,650.427488 349.829786,650.252809 L349.829786,650.252809 L351.068615,649.188587 L352.325105,648.091356 C352.536083,647.905675 352.747865,647.718573 352.960485,647.53003 L352.960485,647.53003 L354.246535,646.381293 L355.554339,645.196888 L356.885532,643.975751 L358.241752,642.716819 C371.699175,630.154687 372.424951,609.06167 359.862819,595.604248 C347.300687,582.146825 326.20767,581.421049 312.750248,593.983181 L312.750248,593.983181 L311.894647,594.778422 L311.065688,595.541905 L309.870372,596.629246 L308.730291,597.649413 L307.999528,598.293475 L307.291222,598.909585 L306.604535,599.498506 L305.61321,600.332571 L304.97691,600.856848 L304.3593,601.3566 L303.759542,601.832589 L303.176801,602.285576 L302.610238,602.716323 L302.059017,603.125591 L301.522301,603.514141 L300.999252,603.882736 C300.91317,603.942548 300.827622,604.00156 300.742592,604.059788 L300.742592,604.059788 L300.238476,604.399877 C300.155444,604.455033 300.072895,604.509437 299.99081,604.563104 L299.99081,604.563104 L299.503743,604.8764 C299.423448,604.927186 299.343584,604.977267 299.264132,605.02666 L299.264132,605.02666 L298.79223,605.314877 L298.329392,605.587326 C277.705085,617.494724 252.292026,617.494724 231.665415,605.585867 C231.449792,605.461366 231.231453,605.331855 231.010762,605.197466 L231.010762,605.197466 L230.259942,604.730425 L229.692131,604.363572 L229.117109,603.979586 L228.532008,603.575832 L227.933959,603.149675 L227.320094,602.698479 L226.900647,602.382469 L226.472046,602.053379 L226.033442,601.710427 L225.354918,601.168301 L224.887585,600.787279 L224.161985,600.184387 L223.660612,599.760415 L222.879968,599.089437 L221.495588,597.871249 L220.305459,596.799767 L219.034519,595.635358 L217.67597,594.371774 L216.223013,593.002768 L214.263698,591.133744 L211.685081,588.643419 L209.331121,586.347585 L206.776532,583.838224 L202.238731,579.348658 L197.098929,574.231253 L191.47766,568.610321 L184.608176,561.704388 L180.843967,557.890537 L178.42201,555.418547 L177.069693,554.029864 L175.378812,552.282609 L173.436771,550.256655 L171.673984,548.394008 L170.384628,547.012559 L169.195957,545.720352 L168.101734,544.510597 L167.095721,543.376504 L166.171678,542.311286 L165.528687,541.553486 L164.733082,540.59246 L164.359976,540.131198 L163.828993,539.460982 L163.330083,538.814231 L163.013995,538.394687 L162.710212,537.98345 L162.275904,537.380316 L161.732616,536.597295 L161.348581,536.022183 L160.981706,535.454308 L160.514682,534.703447 C160.379935,534.48214 160.250092,534.263197 160.124697,534.045962 C148.214289,513.416663 148.214289,488.003337 160.123133,467.376748 C160.247074,467.162094 160.375945,466.944809 160.509648,466.725194 L160.509648,466.725194 L160.624304,466.537849 L161.097126,465.785729 L161.469381,465.21579 L161.85968,464.637653 L162.270656,464.048454 L162.557427,463.648094 L163.008714,463.03409 L163.324798,462.614541 L163.653971,462.18583 L164.173981,461.52373 L164.727832,460.836242 L165.318157,460.1205 L165.947587,459.373639 L166.618756,458.592795 L167.583127,457.493854 L168.361925,456.622572 L169.479357,455.392648 L171.011941,453.736061 L172.706784,451.934669 L174.576074,449.975207 L176.632,447.844411 L178.886751,445.529016 L182.400636,441.952081 L185.767071,438.54988 L189.483,434.813092 L288.568851,335.719601 L294.614878,329.686618 L298.77404,325.558096 L301.994031,322.381026 L304.451075,319.972877 L306.716134,317.769756 L308.398602,316.146934 L309.973027,314.641706 L311.445999,313.248017 L312.824107,311.959813 L314.11394,310.771037 L314.727813,310.212043 L315.612135,309.415665 L316.455142,308.667553 L317.259615,307.965151 L317.775895,307.521017 L318.522322,306.889123 L319.237628,306.296128 L319.698581,305.921146 L320.585995,305.216615 L321.014103,304.885551 L321.639082,304.413329 L322.245913,303.968084 L322.641758,303.684981 L323.031596,303.411975 L323.606893,303.019744 L324.360621,302.525046 L325.105149,302.057116 L325.619606,301.745871 L325.945564,301.555098 C346.572901,289.645951 371.986741,289.64589 392.613485,301.554601 C392.827297,301.678062 393.044606,301.806953 393.264244,301.940676 L393.264244,301.940676 L393.826916,302.28874 L394.203755,302.528207 L394.77372,302.900491 L395.351881,303.290818 L395.941103,303.70182 L396.544251,304.136131 L396.955502,304.43992 L397.588228,304.918928 L398.242521,305.428265 L399.153412,306.159111 L400.114531,306.954796 L400.872416,307.597866 L401.937774,308.522038 L402.781638,309.26864 L403.667127,310.064001 L404.917479,311.20488 L405.911232,312.124251 L407.316336,313.440033 L409.609431,315.619141 L412.593318,318.498155 L415.94422,321.771643 L419.698536,325.473055 L423.265197,329.011637 L429.271197,335.001146 L436.073345,341.816327 L439.670184,345.438671 L442.924589,348.734117 L444.914352,350.760788 L446.767523,352.659149 L448.490343,354.435991 L450.089052,356.098103 L451.922414,358.024752 L453.583791,359.796012 L454.797254,361.110054 L455.367585,361.735086 L456.439344,362.925421 L457.424435,364.041773 L457.88643,364.574327 L458.543428,365.34352 L459.159572,366.079693 L459.737496,366.78571 L460.102845,367.241051 L460.789213,368.118739 L461.421675,368.958098 L462.00647,369.765919 L462.549839,370.548991 L462.933934,371.124141 L463.30087,371.692054 L463.653279,372.255598 L463.965802,372.772065 L464.156665,373.09813 C476.064711,393.723337 476.064711,419.136663 464.155867,439.763252 L464.155867,439.763252 L463.883448,440.225986 L463.595248,440.697798 L463.290511,441.179518 L462.968481,441.671978 L462.628399,442.176006 L462.269509,442.692433 L461.891054,443.222088 L461.492277,443.765803 L461.072422,444.324405 L460.630731,444.898727 L460.166447,445.489597 L459.678813,446.097846 L459.167073,446.724303 L458.630469,447.369799 L457.777289,448.375556 L457.175215,449.07228 L456.545628,449.790948 L455.887772,450.532389 L455.200888,451.297433 L454.484222,452.086911 L453.737014,452.901653 L452.557284,454.172951 C439.990754,467.626266 440.709635,488.719519 454.162951,501.286049 C467.616266,513.85258 488.709519,513.133698 501.276049,499.680383 C501.489051,499.45235 501.700439,499.225419 501.910234,498.999556 L501.910234,498.999556 L503.150074,497.65693 L504.352752,496.338321 C504.550161,496.120464 504.746064,495.90354 504.940486,495.687515 L504.940486,495.687515 L506.0894,494.401887 L507.20379,493.136218 C507.569617,492.717474 507.929865,492.301786 508.284711,491.888884 L508.284711,491.888884 L509.333218,490.658262 L510.350367,489.442729 C515.025529,483.802925 518.710766,478.602999 521.888579,473.100593 C545.708622,431.843337 545.708622,381.016663 521.8908,339.763252 C521.505056,339.095203 521.111302,338.431391 520.708409,337.769759 L520.708409,337.769759 L520.244487,337.012436 L519.550786,335.897827 L519.088199,335.167167 L518.624256,334.444969 L517.923436,333.374782 L517.21349,332.316548 L516.733323,331.615601 L516.246401,330.916819 L515.751643,330.218941 L515.247969,329.520709 L514.7343,328.820862 L514.209556,328.118143 L513.672657,327.41129 L513.122522,326.699045 L512.558072,325.980149 L511.682195,324.886577 L511.077233,324.145541 L510.135525,323.012857 L509.483301,322.241811 L508.810283,321.456556 L508.11539,320.655834 L507.029674,319.422993 L506.275371,318.578092 L505.095477,317.273079 L503.426195,315.456151 L501.639179,313.542088 L500.216455,312.036735 L499.226681,310.997565 L497.143171,308.828111 L494.332723,305.93247 L491.908985,303.456618 L488.645915,300.146101 L484.36564,295.831139 L475.418258,286.8679 L472.993203,284.446905 L467.028321,278.514132 L463.64454,275.169914 L460.50267,272.085872 L458.150521,269.794964 L455.931202,267.65171 L454.348001,266.136125 L452.337612,264.231098 L450.43317,262.450677 L449.068487,261.192091 L448.186716,260.387607 L446.90303,259.230123 L446.071438,258.489767 L444.857294,257.423564 L444.068246,256.740787 L442.912189,255.756042 C442.785445,255.649144 442.659245,255.543065 442.533563,255.437781 L442.533563,255.437781 L441.415728,254.511131 L440.321748,253.623926 L439.247498,252.772632 L438.188856,251.953711 L437.489729,251.424004 L436.794484,250.906065 L435.756221,250.148933 L435.065334,249.655835 L434.027882,248.931051 L432.985417,248.220962 L432.28562,247.753987 L431.580539,247.290924 L430.868955,246.830724 L430.149644,246.372341 L429.053518,245.68588 L427.933135,244.997613 C427.273919,244.59626 426.612539,244.203979 425.948326,243.820444 Z M661.651659,196.680111 C620.392451,172.861507 569.569772,172.861507 528.316585,196.6792 C522.817904,199.852609 517.624797,203.531843 511.984769,208.205946 L511.984769,208.205946 L510.769077,209.222945 L509.538058,210.271469 C509.124981,210.62635 508.709076,210.986663 508.290067,211.352586 L508.290067,211.352586 L507.023459,212.467367 C506.810715,212.656029 506.597126,212.846137 506.382659,213.037716 L506.382659,213.037716 L505.085039,214.204996 L503.764689,215.408613 L502.419962,216.649637 L501.737944,217.284509 C488.280334,229.846441 487.554244,250.939447 500.116176,264.397056 C512.678108,277.854666 533.771114,278.580756 547.228723,266.018824 L547.228723,266.018824 L548.085139,265.222839 L549.319836,264.088368 L550.497146,263.023007 L551.251541,262.349886 L552.339521,261.393969 L553.036994,260.791418 L554.043537,259.937767 L555.005008,259.14203 C555.109439,259.056737 555.213088,258.972468 555.315972,258.889208 L555.315972,258.889208 L555.924246,258.401625 L556.515013,257.937485 L557.089116,257.496022 L557.647395,257.076472 L558.190694,256.678068 L558.719854,256.300045 L559.235718,255.941638 L559.739126,255.60208 L560.230922,255.280606 L560.711947,254.976452 L561.183043,254.68885 L561.645052,254.417036 C582.276895,242.505159 607.687549,242.505159 628.317932,254.414911 L628.317932,254.414911 L628.695781,254.635682 L629.455168,255.095801 L629.838476,255.336767 L630.420443,255.714129 L631.013471,256.113015 L631.620544,256.536156 L632.034537,256.833076 L632.888769,257.466139 L633.330777,257.803903 L633.783893,258.156901 L634.249001,258.525942 L634.726986,258.911838 L635.470042,259.524053 L636.247046,260.178743 L637.060984,260.878642 L638.208847,261.886889 L639.120573,262.702902 L640.409655,263.875887 L641.435423,264.822894 L643.266179,266.537466 L644.847773,268.039016 L646.982613,270.088947 L649.305737,272.342901 L652.361482,275.334771 L655.147484,278.082113 L658.165999,281.073966 L663.513746,286.401094 L669.267307,292.157367 L673.81626,296.728431 L677.316846,300.26513 L680.472644,303.475017 L683.305513,306.381972 L685.837315,309.009875 L687.732938,311.003859 L689.118334,312.480748 L690.39421,313.860148 L691.844911,315.458084 L692.643312,316.354784 L693.147258,316.928569 L693.629492,317.484172 L694.313903,318.285423 L694.954015,319.050742 L695.552561,319.783113 L696.112272,320.485523 L696.465188,320.938625 L696.966249,321.597732 L697.435762,322.234837 L697.876461,322.852926 L698.291077,323.454983 L698.682343,324.043994 L699.052992,324.622943 L699.405756,325.194817 L699.743368,325.762598 L700.206788,326.571837 C711.76352,347.090798 711.645623,372.202929 699.855867,392.623252 L699.855867,392.623252 L699.408363,393.380249 L699.055427,393.952363 L698.684617,394.531536 L698.293201,395.120754 L698.01946,395.520622 L697.587627,396.133219 L697.28441,396.551437 L696.637545,397.415422 L696.292277,397.862959 L695.744802,398.556183 L695.159412,399.278364 L694.315187,400.291476 L693.392219,401.368453 L692.899182,401.933102 L692.117907,402.815266 L691.284139,403.742311 L690.395146,404.717224 L689.119191,406.09673 L687.73372,407.57372 L686.232253,409.155272 L684.608314,410.848464 L682.855423,412.660374 L681.452233,414.101472 L678.406381,417.207893 L675.023014,420.633186 L669.267291,426.421262 L570.694528,524.9982 L565.99928,529.683379 L561.209203,534.439988 L557.482187,538.115292 L554.151529,541.370301 L551.585387,543.850382 L549.633526,545.714184 L548.538067,546.749211 L547.159957,548.037411 L545.870097,549.226207 L544.956652,550.056212 L543.805377,551.085616 L542.724235,552.032263 L541.706638,552.902206 L540.981178,553.507968 L540.284978,554.076543 L539.615259,554.610484 L538.96924,555.112346 L538.550355,555.43036 L537.937662,555.884432 L537.341258,556.313234 L536.758364,556.71932 L536.186201,557.105245 L535.435207,557.592863 L534.877275,557.941676 L534.361386,558.253823 L534.034063,558.445399 C513.406663,570.354711 487.993337,570.354711 467.366748,558.445867 L467.366748,558.445867 L466.610058,557.998326 L466.038157,557.64536 L465.653143,557.400287 L465.2641,557.146459 L464.671046,556.747532 L464.06395,556.324352 L463.439826,555.874185 L462.576013,555.22726 L461.900546,554.703495 L461.435429,554.334433 L460.957437,553.948518 L460.214371,553.336273 L459.437357,552.681553 L458.623409,551.981624 L457.475533,550.973336 L456.563796,550.15729 L455.274696,548.984258 L453.895165,547.708177 L452.032801,545.958294 L450.423923,544.426666 L447.795707,541.894501 L445.889976,540.040461 L442.235165,536.454388 L438.754095,533.012301 L433.569089,527.854312 L429.253132,523.542625 L421.868158,516.132399 L418.367766,512.596331 L415.212008,509.386859 L412.82971,506.944565 L410.658928,504.698691 L408.687019,502.635427 L407.594074,501.479377 L405.914065,499.679566 L404.400059,498.02646 L403.838106,497.403201 L403.039414,496.506248 L402.052821,495.376482 L401.368085,494.57492 L400.727634,493.809269 L400.323923,493.317312 L399.937871,492.839105 L399.390137,492.145644 L399.044696,491.697947 L398.554085,491.046107 L398.094106,490.415263 L397.66203,489.802432 L397.388131,489.402412 L397.124611,489.008188 L396.74702,488.425786 L396.505905,488.042185 L396.158129,487.471575 L395.934363,487.093073 L395.470929,486.283828 C383.917634,465.769315 384.035525,440.656608 395.824672,420.235815 L395.824672,420.235815 L395.958922,420.005591 L396.239072,419.538533 L396.535387,419.061972 L396.848623,418.575077 L397.179537,418.07702 L397.528885,417.566971 L397.897424,417.0441 L398.285912,416.507578 L398.695103,415.956575 L399.125756,415.390262 L399.578626,414.807809 L400.054471,414.208386 L400.554048,413.591165 C400.63933,413.486765 400.725633,413.381589 400.812971,413.27562 L400.812971,413.27562 L401.349563,412.630145 L401.911777,411.964797 L402.804797,410.927699 L403.434379,410.20904 L404.431997,409.088086 L405.495779,407.913087 L406.242986,407.098347 L407.422716,405.827049 C419.989246,392.373734 419.270365,371.280481 405.817049,358.713951 C392.363734,346.14742 371.270481,346.866302 358.703951,360.319617 L358.703951,360.319617 L357.445135,361.67486 C357.238502,361.89862 357.03344,362.121345 356.829926,362.34307 L356.829926,362.34307 L355.627248,363.661679 L354.460676,364.957895 C354.077719,365.386415 353.700604,365.811474 353.329156,366.233341 L353.329156,366.233341 L352.231632,367.489639 C351.691193,368.113273 351.163108,368.730334 350.646782,369.341738 L350.646782,369.341738 L349.629633,370.557271 C349.128723,371.161535 348.639177,371.760751 348.160401,372.355829 L348.160401,372.355829 L347.217034,373.540741 C343.654495,378.063837 340.701767,382.379574 338.091421,386.899407 C314.272891,428.157121 314.272891,478.982879 338.088661,520.235815 C342.65192,528.140072 348.302378,535.458658 356.317974,544.23994 L356.317974,544.23994 L357.603916,545.641855 L358.709545,546.835487 L360.606018,548.856839 L362.424663,550.766433 L364.406929,552.821293 L366.869003,555.344803 L372.565929,561.111763 L385.667096,574.236343 L388.554824,577.11938 L394.683949,583.216251 L398.966115,587.439167 L401.506728,589.917252 L403.549681,591.887354 L405.679653,593.913503 L407.836204,595.931407 L409.429135,597.400096 L410.781645,598.633261 C419.231717,606.288945 426.355153,611.74681 434.030408,616.179158 C475.286663,639.998622 526.113337,639.998622 567.366748,616.1808 C568.035129,615.794933 568.701441,615.399724 569.365558,614.995308 C571.165142,613.899447 572.857523,612.823759 574.516884,611.704639 L574.516884,611.704639 L575.226233,611.222171 L576.116263,610.604968 L577.00453,609.97533 L577.59701,609.547563 L578.488106,608.892253 L579.384361,608.218572 L580.28837,607.524294 L581.20273,606.807195 L581.819335,606.31535 L582.756712,605.555268 L583.711362,604.766428 L584.358673,604.223459 L585.347878,603.381745 L586.361277,602.505337 L587.0516,601.900693 L587.754598,601.278981 L588.834545,600.312969 L589.947339,599.304845 L591.095575,598.252384 L592.281849,597.15336 L593.508757,596.005547 L595.212329,594.395389 L596.998906,592.689263 L599.358229,590.413614 L601.354066,588.472271 L603.994431,585.885906 L607.984204,581.948452 L614.337315,575.631509 L715.648258,474.324321 L724.139596,465.800334 L727.785494,462.110348 L730.350598,459.491192 L733.091276,456.658513 L735.274385,454.365683 L736.60324,452.950286 L737.529295,451.954354 L738.905562,450.459885 L740.046984,449.20742 C747.703395,440.755935 753.161349,433.630873 757.592813,425.953261 C781.408622,384.703337 781.408622,333.876329 757.5908,292.622919 C753.031735,284.723311 747.381905,277.40462 739.365885,268.622134 L739.365885,268.622134 L738.080401,267.22059 L736.603262,265.628242 L735.849857,264.823809 L734.671737,263.576048 L732.433287,261.23582 L729.65549,258.375023 L725.776407,254.431156 L722.227572,250.852767 L711.868555,240.473578 L703.954199,232.576756 L698.479222,227.15185 L695.361409,224.094058 L693.10251,221.903065 L690.37553,219.297027 L688.045731,217.112122 L686.053271,215.275068 L684.901266,214.225585 C676.451005,206.56999 669.327285,201.112224 661.651659,196.680111 Z" id="Combined-Shape" fill="#FFFFFF"></path>
        <g id="link-alt-1-svgrepo-com" transform="translate(117.858167, 212.149167)"></g>
    </g>
</svg>