<?xml version="1.0" encoding="UTF-8"?>
<svg width="42px" height="42px" viewBox="0 0 42 42" version="1.1" xmlns="http://www.w3.org/2000/svg" xmlns:xlink="http://www.w3.org/1999/xlink">
    <title>QR Code</title>
    <g id="Scratch" stroke="none" stroke-width="1" fill="none" fill-rule="evenodd">
        <g id="IPhone-5.5&quot;" transform="translate(-543.000000, -87.000000)" stroke="#FFFFFF">
            <g id="QR-Code" transform="translate(545.000000, 89.000000)">
                <path d="M28.7829322,0 L32.5714286,0 C35.5695458,0 38,2.43045422 38,5.42857143 L38,9.45279252 L38,9.45279252 M38,27.7560771 L38,32.5714286 C38,35.5695458 35.5695458,38 32.5714286,38 L27.2342993,38 L27.2342993,38 M9.6342437,38 L5.42857143,38 C2.43045422,38 0,35.5695458 0,32.5714286 L0,27.9978243 L0,27.9978243 M0,10.0209163 L0,5.42857143 C0,2.43045422 2.43045422,0 5.42857143,0 L9.35995007,0 L9.35995007,0" id="Shape" stroke-width="4"></path>
                <rect id="Rectangle" stroke-width="3" stroke-linejoin="round" x="7" y="7" width="9" height="9"></rect>
                <rect id="Rectangle-Copy-2" stroke-width="3" stroke-linejoin="round" x="7" y="22" width="9" height="9"></rect>
                <rect id="Rectangle-Copy" stroke-width="3" stroke-linejoin="round" x="22" y="7" width="9" height="9"></rect>
                <rect id="Rectangle-Copy-3" stroke-width="3" stroke-linejoin="round" x="22" y="22" width="9" height="9"></rect>
            </g>
        </g>
    </g>
</svg>